<?xml version="1.0" encoding="UTF-8"?>
<svg width="13px" height="13px" viewBox="0 0 13 13" version="1.1" xmlns="http://www.w3.org/2000/svg" xmlns:xlink="http://www.w3.org/1999/xlink">
    <!-- Generator: Sketch 49.2 (51160) - http://www.bohemiancoding.com/sketch -->
    <title>Shape</title>
    <desc>Created with Sketch.</desc>
    <defs></defs>
    <g id="Detail" stroke="none" stroke-width="1" fill="none" fill-rule="evenodd">
        <g transform="translate(-630.000000, -3366.000000)" fill="#199CE7" fill-rule="nonzero" id="Group-2">
            <g transform="translate(630.000000, 3365.000000)">
                <g id="icons8-like_it">
                    <path d="M5.46875,1 C5.203125,1.015625 5,1.234375 5,1.5 L5,2.375 C5,3.578125 4.671875,4.457031 4.40625,5 L0,5 L0,14 L10.6875,14 C11.402344,14 12.03125,13.511719 12.1875,12.816406 C12.1875,12.804688 12.191406,12.789063 12.191406,12.777344 L12.996094,6.773438 L12.984375,6.820313 C13.191406,5.886719 12.445313,5 11.488281,5 L8,5 L8,3.25 C8,2.132813 7.3125,1.460938 6.6875,1.210938 C6.0625,0.957031 5.46875,1 5.46875,1 Z M6,2.078125 C6.132813,2.097656 6.164063,2.074219 6.3125,2.132813 C6.6875,2.289063 7,2.492188 7,3.25 L7,5.5 C7,5.777344 7.222656,6 7.5,6 L11.488281,6 C11.847656,6 12.078125,6.285156 12.011719,6.601563 C12.007813,6.617188 12.003906,6.628906 12,6.644531 L11.207031,12.605469 C11.15625,12.828125 10.949219,13 10.6875,13 L5,13 L5,6.019531 C5.226563,5.671875 6,4.339844 6,2.375 L6,2.078125 Z M1,6 L4,6 L4,13 L1,13 L1,6 Z M2.5,11 C2.222656,11 2,11.222656 2,11.5 C2,11.777344 2.222656,12 2.5,12 C2.777344,12 3,11.777344 3,11.5 C3,11.222656 2.777344,11 2.5,11 Z" id="Shape"></path>
                </g>
            </g>
        </g>
    </g>
</svg>