<?xml version="1.0" encoding="UTF-8"?>
<svg width="24px" height="26px" viewBox="0 0 24 26" version="1.1" xmlns="http://www.w3.org/2000/svg" xmlns:xlink="http://www.w3.org/1999/xlink">
    <!-- Generator: Sketch 49.2 (51160) - http://www.bohemiancoding.com/sketch -->
    <title>icons8-headset</title>
    <desc>Created with Sketch.</desc>
    <defs></defs>
    <g id="List-+-Cate" stroke="none" stroke-width="1" fill="none" fill-rule="evenodd">
        <g id="List" transform="translate(-1139.000000, -102.000000)" fill="#FFFFFF" fill-rule="nonzero">
            <g id="icons8-headset" transform="translate(1139.000000, 102.000000)">
                <path d="M12,0 C5.40625,0 0,5.40625 0,12 L0,19 C0,20.648438 1.351562,22 3,22 L5,22 C5.554688,22 6,21.554688 6,21 L6,15 C6,14.445312 5.554688,14 5,14 L2,14 L2,12 C2,6.492188 6.492188,2 12,2 C17.507812,2 22,6.492188 22,12 L22,14 L19,14 C18.445312,14 18,14.445312 18,15 L18,21 C18,21.554688 18.445312,22 19,22 L19.820312,22 C19.414062,23.164062 18.320312,24 17,24 L13,24 C12.640626,23.992188 12.304688,24.1875 12.125,24.492188 C11.9375,24.804688 11.9375,25.195312 12.125,25.507812 C12.304688,25.8125 12.640626,26.007812 13,26 L17,26 C19.460938,26 21.507812,24.195312 21.914062,21.84375 C23.117188,21.445312 24,20.328126 24,19 L24,12 C24,5.40625 18.59375,0 12,0 Z M2,16 L4,16 L4,20 L3,20 C2.4375,20 2,19.5625 2,19 L2,16 Z M20,16 L22,16 L22,19 C22,19.539062 21.59375,19.953126 21.0625,19.992188 C21.039062,19.984376 21.007812,19.984376 20.984376,19.984376 C20.9375,19.984376 20.882812,19.992188 20.835938,20 L20,20 L20,16 Z" id="Shape"></path>
            </g>
        </g>
    </g>
</svg>