<?xml version="1.0" encoding="UTF-8"?>
<svg width="26px" height="24px" viewBox="0 0 26 24" version="1.1" xmlns="http://www.w3.org/2000/svg" xmlns:xlink="http://www.w3.org/1999/xlink">
    <!-- Generator: Sketch 49.2 (51160) - http://www.bohemiancoding.com/sketch -->
    <title>Combined Shape</title>
    <desc>Created with Sketch.</desc>
    <defs></defs>
    <g id="Detail" stroke="none" stroke-width="1" fill="none" fill-rule="evenodd">
        <g transform="translate(-998.000000, -733.000000)" fill="#FFFFFF" fill-rule="nonzero" id="icons8-shopping_cart">
            <g transform="translate(998.000000, 733.000000)">
                <path d="M0.941796597,9.64145698e-05 C0.606920389,-0.00479986339 0.29543533,0.177096699 0.126615141,0.47613435 C-0.0422050471,0.775172002 -0.0422050471,1.14502083 0.126615141,1.44405848 C0.29543533,1.74309613 0.606920389,1.92499269 0.941796597,1.92009641 L2.68649521,1.92009641 C2.89626173,1.92009641 3.07129893,2.05590128 3.13083122,2.26509641 L7.08814144,16.1738462 C7.43545817,17.3946916 8.52767638,18.2400964 9.75959817,18.2400964 L19.95212,18.2400964 C21.2042206,18.2400964 22.3097638,17.3652417 22.6398997,16.1175959 L25.0520089,6.97322144 C25.1283126,6.68447638 25.0699902,6.37545967 24.8942881,6.13755118 C24.7185861,5.89964269 24.4073236,5.00598672 24.1177958,5.00601682 L6.14495647,5.00601682 L4.91361584,1.72322144 C4.62218862,0.705536575 3.71172898,9.64145698e-05 2.68649521,9.64145698e-05 L0.941796597,9.64145698e-05 Z M10.2275109,20.1600964 C9.2018392,20.1600964 8.37036803,21.0197097 8.37036803,22.0800964 C8.37036803,23.1404831 9.2018392,24.0000964 10.2275109,24.0000964 C11.2531826,24.0000964 12.0846537,23.1404831 12.0846537,22.0800964 C12.0846537,21.0197097 11.2531826,20.1600964 10.2275109,20.1600964 Z M19.5132252,20.1600964 C20.5388968,20.1600964 21.370368,21.0197097 21.370368,22.0800964 C21.370368,23.1404831 20.5388968,24.0000964 19.5132252,24.0000964 C18.4875535,24.0000964 17.6560823,23.1404831 17.6560823,22.0800964 C17.6560823,21.0197097 18.4875535,20.1600964 19.5132252,20.1600964 Z M9.5,8 L20.5,8 C20.7761424,8 21,8.22385763 21,8.5 C21,8.77614237 20.7761424,9 20.5,9 L9.5,9 C9.22385763,9 9,8.77614237 9,8.5 C9,8.22385763 9.22385763,8 9.5,8 Z M10.5,11 L18.5,11 C18.7761424,11 19,11.2238576 19,11.5 C19,11.7761424 18.7761424,12 18.5,12 L10.5,12 C10.2238576,12 10,11.7761424 10,11.5 C10,11.2238576 10.2238576,11 10.5,11 Z M11.5,14 L17.5,14 C17.7761424,14 18,14.2238576 18,14.5 C18,14.7761424 17.7761424,15 17.5,15 L11.5,15 C11.2238576,15 11,14.7761424 11,14.5 C11,14.2238576 11.2238576,14 11.5,14 Z" id="Combined-Shape"></path>
            </g>
        </g>
    </g>
</svg>