<?xml version="1.0" encoding="UTF-8"?>
<svg width="14px" height="11px" viewBox="0 0 14 11" version="1.1" xmlns="http://www.w3.org/2000/svg" xmlns:xlink="http://www.w3.org/1999/xlink">
    <!-- Generator: Sketch 49.2 (51160) - http://www.bohemiancoding.com/sketch -->
    <title>Shape</title>
    <desc>Created with Sketch.</desc>
    <defs></defs>
    <g id="Detail" stroke="none" stroke-width="1" fill="none" fill-rule="evenodd">
        <g transform="translate(-1327.000000, -501.000000)" fill="#666666" fill-rule="nonzero" id="icons8-message">
            <g transform="translate(1327.000000, 501.000000)">
                <path d="M1.5,0 C0.675781,0 0,0.675781 0,1.5 L0,9.5 C0,10.324219 0.675781,11 1.5,11 L12.5,11 C13.324219,11 14,10.324219 14,9.5 L14,1.5 C14,0.675781 13.324219,0 12.5,0 L1.5,0 Z M1.5,1 L12.5,1 C12.535156,1 12.5625,1.011719 12.59375,1.019531 L7,4.890625 L1.40625,1.019531 C1.4375,1.011719 1.464844,1 1.5,1 Z M1,1.953125 L7,6.109375 L13,1.953125 L13,9.5 C13,9.78125 12.78125,10 12.5,10 L1.5,10 C1.21875,10 1,9.78125 1,9.5 L1,1.953125 Z" id="Shape"></path>
            </g>
        </g>
    </g>
</svg>