<?xml version="1.0" encoding="UTF-8"?>
<svg width="14px" height="15px" viewBox="0 0 14 15" version="1.1" xmlns="http://www.w3.org/2000/svg" xmlns:xlink="http://www.w3.org/1999/xlink">
    <!-- Generator: Sketch 49.2 (51160) - http://www.bohemiancoding.com/sketch -->
    <title>Shape</title>
    <desc>Created with Sketch.</desc>
    <defs></defs>
    <g id="Cart" stroke="none" stroke-width="1" fill="none" fill-rule="evenodd">
        <g id="Cart-full" transform="translate(-572.000000, -703.000000)" fill="#000000" fill-rule="nonzero">
            <g id="icons8-data_backup-copy" transform="translate(572.000000, 703.000000)">
                <path d="M1.5,0 C0.6774686,0 0,0.6774686 0,1.5 L0,11.5 C0,12.322531 0.6774686,13 1.5,13 L4,13 L4,12 L1.5,12 C1.2185314,12 1,11.781469 1,11.5 L1,9 L3,9 L3,8 L1,8 L1,5 L3,5 L3,4 L1,4 L1,1.5 C1,1.2185314 1.2185314,1 1.5,1 L10.5,1 C10.781469,1 11,1.2185314 11,1.5 L11,4 L4,4 L4,5 L11,5 L11,7 L12,7 L12,1.5 C12,0.6774686 11.322531,0 10.5,0 L1.5,0 Z M4,8 L4,9 L6,9 L6,8 L4,8 Z M10.5,8 C8.744116,8 7.2967432,9.310272 7.0507812,11 L4.5,11 L7.5,14 L10.5,11 L8.050781,11 C8.280654,9.855042 9.284533,9 10.5,9 C11.886833,9 13,10.113167 13,11.5 C13,12.886833 11.886833,14 10.5,14 L10.5,15 C12.427167,15 14,13.427167 14,11.5 C14,9.572833 12.427167,8 10.5,8 Z" id="Shape"></path>
            </g>
        </g>
    </g>
</svg>