<?xml version="1.0" encoding="UTF-8"?>
<svg width="13px" height="14px" viewBox="0 0 13 14" version="1.1" xmlns="http://www.w3.org/2000/svg" xmlns:xlink="http://www.w3.org/1999/xlink">
    <!-- Generator: Sketch 49.2 (51160) - http://www.bohemiancoding.com/sketch -->
    <title>Shape</title>
    <desc>Created with Sketch.</desc>
    <defs></defs>
    <g id="Detail" stroke="none" stroke-width="1" fill="none" fill-rule="evenodd">
        <g transform="translate(-708.000000, -3367.000000)" fill="#199CE7" fill-rule="nonzero" id="Group-2">
            <g transform="translate(630.000000, 3365.000000)">
                <g id="icons8-comments" transform="translate(78.000000, 2.000000)">
                    <path d="M1.5,0 C0.675781,0 0,0.675781 0,1.5 L0,9.5 C0,10.324219 0.675781,11 1.5,11 L6.347656,11 L10,13.433594 L10,11 L11.5,11 C12.324219,11 13,10.324219 13,9.5 L13,1.5 C13,0.675781 12.324219,0 11.5,0 L1.5,0 Z M1.5,1 L11.5,1 C11.78125,1 12,1.21875 12,1.5 L12,9.5 C12,9.78125 11.78125,10 11.5,10 L9,10 L9,11.566406 L6.652344,10 L1.5,10 C1.21875,10 1,9.78125 1,9.5 L1,1.5 C1,1.21875 1.21875,1 1.5,1 Z M3,3 L3,4 L10,4 L10,3 L3,3 Z M3,5 L3,6 L10,6 L10,5 L3,5 Z M3,7 L3,8 L7,8 L7,7 L3,7 Z" id="Shape"></path>
                </g>
            </g>
        </g>
    </g>
</svg>