<?xml version="1.0" encoding="UTF-8"?>
<svg width="24px" height="24px" viewBox="0 0 24 24" version="1.1" xmlns="http://www.w3.org/2000/svg" xmlns:xlink="http://www.w3.org/1999/xlink">
    <!-- Generator: Sketch 49.2 (51160) - http://www.bohemiancoding.com/sketch -->
    <title>pizza-slice</title>
    <desc>Created with Sketch.</desc>
    <defs></defs>
    <g id="Home" stroke="none" stroke-width="1" fill="none" fill-rule="evenodd">
        <g id="GICO-Copy" transform="translate(-372.000000, -2787.000000)" fill="#FFFFFF" fill-rule="nonzero">
            <g id="pizza-slice" transform="translate(371.000000, 2787.000000)">
                <path d="M24.988,13.892 C24.946,13.703 23.91,9.203 19.853,5.147 C15.796,1.091 11.297,0.055 11.108,0.012 C10.874,-0.04 10.63,0.085 10.538,0.309 L8.978,4.085 C10.568,4.308 13.833,5.126 16.853,8.146 C20.171,11.463 20.834,14.768 20.966,16 L24.69,14.462 C24.915,14.37 25.041,14.129 24.988,13.892 Z" id="Shape"></path>
                <path d="M16.146,8.854 C13.157,5.865 9.879,5.197 8.581,5.046 L5.828,11.71 L5.827,11.711 L4.21,15.627 L1.037,23.309 C0.998,23.402 0.99,23.503 1.009,23.598 C1.028,23.693 1.074,23.782 1.146,23.854 C1.242,23.95 1.37,24 1.5,24 C1.564,24 1.629,23.988 1.69,23.962 L12.758,19.391 L16.014,18.046 L16.868,17.693 L19.995,16.401 C19.96,15.799 19.611,12.318 16.146,8.854 Z M2.667,21.983 L3.659,19.58 C3.869,19.841 3.999,20.159 3.999,20.5 C4,21.27 3.415,21.898 2.667,21.983 Z M6.529,12.633 L6.534,12.622 L7.612,10.011 C8.386,10.07 9,10.711 9,11.5 C9,12.327 8.327,13 7.5,13 C7.142,13 6.801,12.869 6.529,12.633 Z M10.872,19.088 L10.809,19.114 L10.425,19.273 L10.423,19.274 L8.967,19.875 C8.396,19.653 8,19.116 8,18.5 C8,17.673 8.673,17 9.5,17 C10.327,17 11,17.673 11,18.5 C11,18.7 10.957,18.897 10.872,19.088 Z M13.5,13 C12.673,13 12,12.327 12,11.5 C12,10.673 12.673,10 13.5,10 C14.327,10 15,10.673 15,11.5 C15,12.327 14.327,13 13.5,13 Z M16.52,16.755 L16.486,16.769 L16.075,16.939 C16.03,16.797 16,16.65 16,16.5 C16,15.673 16.673,15 17.5,15 C18.064,15 18.572,15.321 18.826,15.802 L16.52,16.755 Z" id="Shape"></path>
            </g>
        </g>
    </g>
</svg>