<?xml version="1.0" encoding="UTF-8"?>
<svg width="13px" height="13px" viewBox="0 0 13 13" version="1.1" xmlns="http://www.w3.org/2000/svg" xmlns:xlink="http://www.w3.org/1999/xlink">
    <!-- Generator: Sketch 49.2 (51160) - http://www.bohemiancoding.com/sketch -->
    <title>Shape</title>
    <desc>Created with Sketch.</desc>
    <defs></defs>
    <g id="Detail" stroke="none" stroke-width="1" fill="none" fill-rule="evenodd">
        <g transform="translate(-1327.000000, -458.000000)" fill="#666666" fill-rule="nonzero" id="icons8-phone">
            <g transform="translate(1327.000000, 458.000000)">
                <path d="M2.371094,0.042969 L0.796875,1.617188 C-0.066406,2.480469 -0.253906,3.824219 0.363281,4.878906 C1.050781,6.058594 1.613281,6.929688 3.96875,9.28125 C6.320313,11.636719 6.960938,11.957031 8.121094,12.636719 C9.179688,13.253906 10.519531,13.066406 11.378906,12.203125 L12.957031,10.628906 L9.910156,7.585938 L8.671875,8.824219 C8.523438,8.757813 8.300781,8.640625 8.042969,8.476563 C7.511719,8.136719 6.832031,7.617188 6.234375,7.015625 C5.632813,6.417969 5.046875,5.671875 4.640625,5.070313 C4.441406,4.773438 4.28125,4.503906 4.195313,4.328125 C4.191406,4.320313 4.191406,4.320313 4.1875,4.3125 L5.414063,3.085938 L2.371094,0.042969 Z M2.371094,1.457031 L4,3.085938 L3.285156,3.804688 C3.136719,3.953125 3.121094,4.117188 3.125,4.210938 C3.125,4.300781 3.140625,4.363281 3.15625,4.421875 C3.191406,4.542969 3.238281,4.648438 3.296875,4.773438 C3.417969,5.015625 3.59375,5.304688 3.8125,5.632813 C4.25,6.28125 4.867188,7.066406 5.523438,7.726563 C6.183594,8.382813 6.910156,8.9375 7.507813,9.316406 C7.804688,9.507813 8.066406,9.652344 8.289063,9.75 C8.402344,9.800781 8.503906,9.839844 8.625,9.863281 C8.683594,9.875 8.75,9.882813 8.839844,9.875 C8.929688,9.871094 9.070313,9.839844 9.195313,9.714844 L9.910156,9 L11.542969,10.628906 L10.671875,11.5 C10.128906,12.042969 9.289063,12.160156 8.625,11.773438 C7.445313,11.082031 6.996094,10.898438 4.671875,8.578125 C2.351563,6.253906 1.90625,5.539063 1.226563,4.375 C0.839844,3.710938 0.957031,2.871094 1.5,2.328125 L2.371094,1.457031 Z" id="Shape"></path>
            </g>
        </g>
    </g>
</svg>