<?xml version="1.0" encoding="UTF-8"?>
<svg width="24px" height="24px" viewBox="0 0 24 24" version="1.1" xmlns="http://www.w3.org/2000/svg" xmlns:xlink="http://www.w3.org/1999/xlink">
    <!-- Generator: Sketch 49.2 (51160) - http://www.bohemiancoding.com/sketch -->
    <title>steak</title>
    <desc>Created with Sketch.</desc>
    <defs></defs>
    <g id="Home" stroke="none" stroke-width="1" fill="none" fill-rule="evenodd">
        <g id="GICO-Copy" transform="translate(-372.000000, -2029.000000)" fill="#FFFFFF" fill-rule="nonzero">
            <g id="steak" transform="translate(372.000000, 2029.000000)">
                <path d="M1.967,7 C1.839,7 1.711,6.951 1.613,6.854 C1.418,6.659 1.418,6.342 1.613,6.147 C2.224,5.535 1.973,4.793 1.513,3.632 C1.085,2.552 0.552,1.208 1.613,0.147 C1.808,-0.048 2.125,-0.048 2.32,0.147 C2.515,0.342 2.515,0.659 2.32,0.854 C1.753,1.421 1.998,2.139 2.443,3.263 C2.881,4.369 3.427,5.746 2.32,6.854 C2.223,6.951 2.095,7 1.967,7 Z" id="Shape"></path>
                <path d="M4.967,5 C4.806,5 4.648,4.922 4.551,4.777 C4.398,4.547 4.46,4.237 4.69,4.084 C5.098,3.812 5.077,3.608 4.549,2.72 C4.144,2.039 3.466,0.9 4.69,0.084 C4.918,-0.068 5.228,-0.008 5.383,0.223 C5.536,0.452 5.474,0.763 5.244,0.916 C4.893,1.15 4.866,1.297 5.408,2.209 C5.822,2.905 6.514,4.069 5.244,4.916 C5.16,4.973 5.063,5 4.967,5 Z" id="Shape"></path>
                <g id="Group" transform="translate(0.000000, 3.000000)">
                    <path d="M6.491,11 C7.459,11 7.991,10.625 7.991,10.5 C7.991,10.375 7.459,10 6.491,10 C5.523,10 4.991,10.375 4.991,10.5 C4.991,10.625 5.523,11 6.491,11 Z" id="Shape"></path>
                    <path d="M18.491,9 C17.331,9 15.486,11.179 13.703,13.286 C11.325,16.095 8.866,19 6.491,19 C3.785,19 1.579,16.798 0.275,14.367 L0.493,16.544 C0.602,17.783 1.892,21 6.491,21 C8.849,21 11.59,18.105 14.238,15.306 C16.242,13.189 18.314,11 19.491,11 C22.393,11 23.991,9.402 23.991,6.5 L23.991,5.706 C22.777,7.469 20.626,9 18.491,9 Z" id="Shape"></path>
                    <path d="M6.491,18 C8.403,18 10.813,15.152 12.94,12.64 C15.046,10.15 16.867,8 18.491,8 C20.985,8 23.421,5.459 23.9,3.61 C23.594,2.258 22.353,1 17.991,1 C17.198,1 16.498,0.988 15.866,0.977 C12.309,0.917 10.79,0.939 7.234,3.072 C6.607,3.448 6.01,3.79 5.449,4.112 C2.35,5.888 0.107,7.195 0.009,10.301 C0.199,13.046 2.932,18 6.491,18 Z M13.491,3 C15.773,3 19.017,4.318 19.845,5.146 C20.04,5.341 20.04,5.658 19.845,5.853 C19.747,5.951 19.619,5.999 19.491,5.999 C19.363,5.999 19.235,5.95 19.137,5.853 C18.527,5.243 15.529,3.999 13.491,3.999 C13.215,3.999 12.991,3.775 12.991,3.499 C12.991,3.223 13.214,3 13.491,3 Z M6.491,6 C7.759,6 12.839,7.141 13.845,8.146 C14.04,8.341 14.04,8.658 13.845,8.853 C13.747,8.951 13.619,8.999 13.491,8.999 C13.363,8.999 13.235,8.95 13.137,8.853 C12.432,8.148 7.782,6.999 6.491,6.999 C6.215,6.999 5.991,6.775 5.991,6.499 C5.991,6.223 6.214,6 6.491,6 Z M6.491,9 C7.916,9 8.991,9.645 8.991,10.5 C8.991,11.355 7.916,12 6.491,12 C5.066,12 3.991,11.355 3.991,10.5 C3.991,9.645 5.066,9 6.491,9 Z" id="Shape"></path>
                </g>
                <path d="M7.967,3 C7.758,3 7.563,2.868 7.492,2.658 C7.405,2.396 7.547,2.113 7.808,2.026 C7.817,2.023 7.825,2.02 7.833,2.017 C7.772,1.963 7.706,1.907 7.655,1.865 C7.323,1.586 6.909,1.238 7.002,0.749 C7.095,0.263 7.632,0.084 7.808,0.026 C8.07,-0.061 8.353,0.08 8.441,0.342 C8.526,0.597 8.394,0.872 8.145,0.967 C8.199,1.015 8.255,1.062 8.299,1.1 C8.636,1.383 9.055,1.735 8.96,2.231 C8.865,2.728 8.308,2.914 8.124,2.975 C8.073,2.992 8.02,3 7.967,3 Z" id="Shape"></path>
            </g>
        </g>
    </g>
</svg>