<?xml version="1.0" encoding="UTF-8"?>
<svg width="24px" height="24px" viewBox="0 0 24 24" version="1.1" xmlns="http://www.w3.org/2000/svg" xmlns:xlink="http://www.w3.org/1999/xlink">
    <!-- Generator: Sketch 49.2 (51160) - http://www.bohemiancoding.com/sketch -->
    <title>corn</title>
    <desc>Created with Sketch.</desc>
    <defs></defs>
    <g id="Home" stroke="none" stroke-width="1" fill="none" fill-rule="evenodd">
        <g id="GICO-Copy" transform="translate(-371.000000, -3543.000000)" fill="#FFFFFF" fill-rule="nonzero">
            <g id="corn" transform="translate(371.000000, 3543.000000)">
                <path d="M2.449,11.993 C2.586,11.993 2.722,11.936 2.821,11.827 C4.362,10.116 6.381,8.203 9.138,5.672 L9.982,4.896 C10.395,4.516 10.839,4.148 11.339,3.77 C11.499,3.649 11.571,3.445 11.523,3.251 C11.308,2.382 10.93,1.225 10.351,0.646 C10.224,0.519 10.038,0.47 9.868,0.517 C9.695,0.563 9.56,0.699 9.514,0.871 C9.013,2.762 6.014,6.776 4.644,8.146 C4.524,8.266 4.396,8.389 4.261,8.518 C3.582,9.169 2.738,9.98 2.014,11.244 C1.887,11.466 1.948,11.747 2.155,11.897 C2.244,11.962 2.347,11.993 2.449,11.993 Z" id="Shape"></path>
                <path d="M16.998,12 C16.26,12 9.562,12.229 1.644,20.146 C1.501,20.289 1.458,20.505 1.536,20.692 C1.584,20.807 2.743,23.5 5.997,23.5 C11.872,23.5 14.04,21.238 15.475,19.741 C15.606,19.604 15.73,19.474 15.851,19.354 C17.221,17.984 21.235,14.985 23.126,14.484 C23.299,14.438 23.434,14.303 23.48,14.13 C23.526,13.958 23.477,13.773 23.351,13.647 C22.334,12.629 19.262,12 16.998,12 Z" id="Shape"></path>
                <path d="M21.194,0.5 C21.018,0.5 20.852,0.519 20.686,0.557 C19.681,0.788 14.475,2.121 10.66,5.633 L9.814,6.41 C5.234,10.613 0.499,14.96 0.499,18.001 C0.499,18.24 0.525,18.473 0.554,18.704 C0.578,18.892 0.706,19.05 0.885,19.112 C0.939,19.131 0.995,19.14 1.051,19.14 C1.178,19.14 1.304,19.091 1.399,18.999 C7.499,13.095 13.615,11 17,11 C17.794,11 18.738,11.082 19.659,11.23 C19.857,11.261 20.048,11.175 20.157,11.01 C22.375,7.627 23.284,4.004 23.444,3.311 C23.482,3.145 23.501,2.979 23.501,2.799 C23.498,1.532 22.466,0.5 21.194,0.5 Z M3.998,16.5 C3.722,16.5 3.498,16.276 3.498,16 C3.498,15.724 3.722,15.5 3.998,15.5 C4.274,15.5 4.498,15.724 4.498,16 C4.498,16.276 4.274,16.5 3.998,16.5 Z M6.998,13.5 C6.722,13.5 6.498,13.276 6.498,13 C6.498,12.724 6.722,12.5 6.998,12.5 C7.274,12.5 7.498,12.724 7.498,13 C7.498,13.276 7.274,13.5 6.998,13.5 Z M9.998,10.5 C9.722,10.5 9.498,10.276 9.498,10 C9.498,9.724 9.722,9.5 9.998,9.5 C10.274,9.5 10.498,9.724 10.498,10 C10.498,10.276 10.274,10.5 9.998,10.5 Z M12.998,10.5 C12.722,10.5 12.498,10.276 12.498,10 C12.498,9.724 12.722,9.5 12.998,9.5 C13.274,9.5 13.498,9.724 13.498,10 C13.498,10.276 13.274,10.5 12.998,10.5 Z M12.998,7.5 C12.722,7.5 12.498,7.276 12.498,7 C12.498,6.724 12.722,6.5 12.998,6.5 C13.274,6.5 13.498,6.724 13.498,7 C13.498,7.276 13.274,7.5 12.998,7.5 Z M15.998,8.5 C15.722,8.5 15.498,8.276 15.498,8 C15.498,7.724 15.722,7.5 15.998,7.5 C16.274,7.5 16.498,7.724 16.498,8 C16.498,8.276 16.274,8.5 15.998,8.5 Z M15.998,5.5 C15.722,5.5 15.498,5.276 15.498,5 C15.498,4.724 15.722,4.5 15.998,4.5 C16.274,4.5 16.498,4.724 16.498,5 C16.498,5.276 16.274,5.5 15.998,5.5 Z M18.998,7.5 C18.722,7.5 18.498,7.276 18.498,7 C18.498,6.724 18.722,6.5 18.998,6.5 C19.274,6.5 19.498,6.724 19.498,7 C19.498,7.276 19.274,7.5 18.998,7.5 Z M19.998,4.5 C19.722,4.5 19.498,4.276 19.498,4 C19.498,3.724 19.722,3.5 19.998,3.5 C20.274,3.5 20.498,3.724 20.498,4 C20.498,4.276 20.274,4.5 19.998,4.5 Z" id="Shape"></path>
            </g>
        </g>
    </g>
</svg>