<?xml version="1.0" encoding="UTF-8"?>
<svg width="22px" height="24px" viewBox="0 0 22 24" version="1.1" xmlns="http://www.w3.org/2000/svg" xmlns:xlink="http://www.w3.org/1999/xlink">
    <!-- Generator: Sketch 49.2 (51160) - http://www.bohemiancoding.com/sketch -->
    <title>banana</title>
    <desc>Created with Sketch.</desc>
    <defs></defs>
    <g id="Home" stroke="none" stroke-width="1" fill="none" fill-rule="evenodd">
        <g id="GICO-Copy" transform="translate(-372.000000, -4302.000000)" fill="#FFFFFF" fill-rule="nonzero">
            <g id="banana" transform="translate(372.000000, 4302.000000)">
                <path d="M13.489,0.001 C13.227,0.001 12.852,0.033 12.613,0.31 C12.368,0.595 12.421,0.945 12.459,1.2 C12.473,1.293 12.489,1.394 12.489,1.501 C12.489,2.806 13.428,3.001 13.989,3.001 C14.55,3.001 15.489,2.806 15.489,1.501 C15.489,0.66 14.61,0.001 13.489,0.001 Z" id="Shape"></path>
                <g id="Group" transform="translate(0.000000, 2.000000)">
                    <path d="M15.031,9.8 C16.283,6.946 16.314,3.593 15.299,1.664 C14.932,1.867 14.506,1.997 14.006,1.999 C13.87,1.999 13.74,2.056 13.647,2.154 C13.553,2.252 13.503,2.384 13.509,2.52 C13.536,3.148 13.524,3.882 13.509,4.731 C13.499,5.285 13.488,5.877 13.488,6.5 C13.488,9.891 11.002,12.703 6.837,14.023 C1.688,15.656 0.666,17.075 0.566,17.231 C0.515,17.312 0.488,17.404 0.488,17.5 L0.488,17.98 C6.961,17.774 13.011,14.404 15.031,9.8 Z" id="Shape"></path>
                    <path d="M21.489,6.501 C21.489,5.688 21.046,3.632 19.369,1.676 C18.532,0.699 17.743,0.343 17.007,0.061 C16.878,0.011 16.735,0.018 16.61,0.078 C16.486,0.138 16.392,0.247 16.351,0.379 C16.28,0.607 16.173,0.805 16.052,0.988 C17.327,3.191 17.374,6.951 15.948,10.201 C13.777,15.149 7.341,18.77 0.49,18.98 L0.49,19.5 C0.49,19.683 0.59,19.851 0.75,19.938 C1.182,20.174 1.546,20.394 1.879,20.595 C3.284,21.441 4.212,22 6.99,22 C10.877,22 15.122,20.076 18.344,16.854 C20.585,14.612 21.647,11.233 21.498,6.81 C21.493,6.678 21.489,6.574 21.489,6.501 Z" id="Shape"></path>
                </g>
            </g>
        </g>
    </g>
</svg>