<?xml version="1.0" encoding="iso-8859-1"?>
<!-- Generator: Adobe Illustrator 19.0.0, SVG Export Plug-In . SVG Version: 6.00 Build 0)  -->
<svg version="1.1" id="Layer_1" xmlns="http://www.w3.org/2000/svg" xmlns:xlink="http://www.w3.org/1999/xlink" x="0px" y="0px"
	 viewBox="0 0 511.999 511.999" style="enable-background:new 0 0 511.999 511.999;" xml:space="preserve">
<g>
	<g>
		<path d="M510.078,35.509c-3.388-7.304-10.709-11.977-18.761-11.977H20.682c-8.051,0-15.372,4.672-18.761,11.977
			s-2.23,15.911,2.969,22.06l183.364,216.828v146.324c0,7.833,4.426,14.995,11.433,18.499l94.127,47.063
			c2.919,1.46,6.088,2.183,9.249,2.183c3.782,0,7.552-1.036,10.874-3.089c6.097-3.769,9.809-10.426,9.809-17.594V274.397
			L507.11,57.569C512.309,51.42,513.466,42.813,510.078,35.509z M287.27,253.469c-3.157,3.734-4.889,8.466-4.889,13.355V434.32
			l-52.763-26.381V266.825c0-4.89-1.733-9.621-4.89-13.355L65.259,64.896h381.482L287.27,253.469z"/>
	</g>
</g>
<g>
</g>
<g>
</g>
<g>
</g>
<g>
</g>
<g>
</g>
<g>
</g>
<g>
</g>
<g>
</g>
<g>
</g>
<g>
</g>
<g>
</g>
<g>
</g>
<g>
</g>
<g>
</g>
<g>
</g>
</svg>
